<?xml version="1.0" encoding="UTF-8"?>
<svg id="Layer_2" data-name="Layer 2" xmlns="http://www.w3.org/2000/svg" viewBox="0 0 1438.15 579.82">
  <defs>
    <style>
      .cls-1 {
        fill: #0a1433;
      }

      .cls-2 {
        fill: #36f;
      }
    </style>
  </defs>
  <g id="Layer_1-2" data-name="Layer 1">
    <g>
      <path class="cls-1" d="M574.2,308.22v108.14c-11.18-4.63-22.43-9.27-34.16-12.74-171.87-50.86-341.88,79.46-513.44,23.21-9.08-2.98-18.22-6.45-26.6-10.73v-107.34c10.43,4.15,20.82,8.48,31.64,11.81,173.22,53.25,346.49-80.88,519.53-21.21,7.81,2.69,15.27,6.1,23.03,8.88Z"/>
      <path class="cls-1" d="M0,5.62v273.31c10.43,3.88,20.82,7.93,31.64,11.04,173.22,49.79,346.49-75.62,519.53-19.84,7.81,2.52,15.27,5.7,23.03,8.3V5.62H0Z"/>
      <path class="cls-2" d="M574.2,446.82v108.14c-11.18-4.63-22.43-9.27-34.16-12.74-171.87-50.86-341.88,79.46-513.44,23.21-9.08-2.98-18.22-6.45-26.6-10.73v-107.34c10.43,4.15,20.82,8.48,31.64,11.81,173.22,53.25,346.49-80.88,519.53-21.21,7.81,2.69,15.27,6.1,23.03,8.88Z"/>
      <g>
        <path class="cls-1" d="M788.15,4.71v141.27h-46.59v-51.13h-54.83v51.13h-46.59V4.71h46.59v51.13h54.83V4.71h46.59Z"/>
        <path class="cls-1" d="M898.31,102.09v43.89h-46.59v-44.06l-57.69-97.21h48.94l30.27,53.15h3.7l30.27-53.15h48.94l-57.85,97.38Z"/>
        <path class="cls-1" d="M1110.71,75.34c0,40.53-20.18,70.64-77.7,70.64h-70.97V4.71h70.97c57.52,0,77.7,29.94,77.7,70.64ZM1063.96,75.34c0-22.7-12.78-31.62-30.94-31.62h-24.22v63.24h24.22c18.16,0,30.94-9.08,30.94-31.62Z"/>
        <path class="cls-1" d="M1221.87,145.98l-19.17-36.5h-35.32v36.5h-46.59V4.71h80.89c39.19,0,61.22,16.82,61.22,53.99,0,19-8.58,32.46-20.52,40.87l25.23,46.42h-45.74ZM1167.38,74.67h31.11c11.77,0,17.83-5.72,17.83-15.64s-6.05-15.64-17.83-15.64h-31.11v31.28Z"/>
        <path class="cls-1" d="M1270.14,75.34c0-45.24,31.45-75.34,80.05-75.34s80.05,30.1,80.05,75.34-31.45,75.34-80.05,75.34-80.05-30.1-80.05-75.34ZM1383.99,75.34c0-22.37-15.31-35.15-33.8-35.15s-33.8,12.78-33.8,35.15,15.31,35.15,33.8,35.15,33.8-12.78,33.8-35.15Z"/>
      </g>
      <g>
        <path class="cls-1" d="M636.79,276.68h41.88c.5,9.59,8.58,15.47,28.76,15.64,17.83.17,26.07-4.88,26.07-11.44,0-4.54-2.52-9.25-16.31-11.27l-18.16-2.86c-26.74-4.37-58.86-7.57-58.86-43.73,0-27.92,22.7-45.07,67.61-45.07,40.53,0,68.79,11.27,67.94,51.63h-41.54c-1.68-9.42-9.59-15.31-27.41-15.31-15.47,0-21.86,4.71-21.86,11.1,0,4.04,2.52,8.91,13.29,10.6l14.97,2.52c28.09,4.71,66.6,5.55,66.6,44.23,0,30.78-23.88,46.08-72.32,45.91-48.77-.17-71.81-15.31-70.64-51.97Z"/>
        <path class="cls-1" d="M788.65,182.67h58.69l23.04,80.56h3.36l23.04-80.56h58.69v141.27h-44.4v-62.56h-3.7l-18,62.56h-34.65l-17.99-62.56h-3.7v62.56h-44.4v-141.27Z"/>
        <path class="cls-1" d="M1077.08,305.27h-60.55l-6.22,18.67h-48.1l51.97-141.27h65.25l51.97,141.27h-48.1l-6.22-18.67ZM1065.64,270.79l-14.8-44.4h-8.07l-14.8,44.4h37.67Z"/>
        <path class="cls-1" d="M1239.2,323.94l-19.17-36.5h-35.32v36.5h-46.59v-141.27h80.89c39.19,0,61.22,16.82,61.22,53.99,0,19-8.58,32.46-20.52,40.87l25.23,46.42h-45.74ZM1184.71,252.63h31.11c11.77,0,17.83-5.72,17.83-15.64s-6.05-15.64-17.83-15.64h-31.11v31.28Z"/>
        <path class="cls-1" d="M1438.15,221.52h-50.79v102.42h-46.59v-102.42h-50.79v-38.85h148.17v38.85Z"/>
      </g>
    </g>
  </g>
</svg>